<svg width="882" height="206" viewBox="0 0 882 206" fill="none" xmlns="http://www.w3.org/2000/svg">
<path d="M622.885 203.328C612.709 203.328 603.226 198.169 597.698 189.626L571.716 149.472L546.56 189.338C541.065 198.046 531.487 203.328 521.189 203.328H460.26L533.124 101.664L462.852 1.72799H523.242C533.204 1.72799 542.515 6.67239 548.095 14.9244L573.444 52.416L597.961 15.2186C603.511 6.79676 612.923 1.72799 623.009 1.72799H680.004L610.02 99.072L684.324 203.328H622.885Z" fill="white"/>
<path d="M789.786 1.72799C808.41 1.72799 824.634 4.8 838.458 10.944C852.282 17.088 862.938 25.92 870.426 37.44C877.914 48.96 881.658 62.4 881.658 77.76C881.658 93.12 877.914 106.56 870.426 118.08C862.938 129.6 852.282 138.432 838.458 144.576C824.634 150.72 808.41 153.792 789.786 153.792H770.698C765.175 153.792 760.698 158.269 760.698 163.792V203.328H692.73V1.72799H789.786ZM785.466 101.376C794.682 101.376 801.594 99.36 806.202 95.328C810.81 91.104 813.114 85.248 813.114 77.76C813.114 70.272 810.81 64.512 806.202 60.48C801.594 56.256 794.682 54.144 785.466 54.144H760.698V101.376H785.466Z" fill="white"/>
<path d="M68.256 1.72799V203.328H47.52V20.16H0V1.72799H68.256Z" fill="white"/>
<path d="M196.799 205.056C181.247 205.056 167.326 200.928 155.038 192.672C142.943 184.416 133.439 172.608 126.527 157.248C119.807 141.696 116.447 123.456 116.447 102.528C116.447 81.6 119.807 63.456 126.527 48.096C133.439 32.544 142.943 20.64 155.038 12.384C167.326 4.128 181.247 0 196.799 0C212.351 0 226.175 4.128 238.271 12.384C250.559 20.64 260.159 32.544 267.071 48.096C273.983 63.456 277.439 81.6 277.439 102.528C277.439 123.456 273.983 141.696 267.071 157.248C260.159 172.608 250.559 184.416 238.271 192.672C226.175 200.928 212.351 205.056 196.799 205.056ZM196.799 186.048C208.51 186.048 218.783 182.784 227.615 176.256C236.639 169.728 243.646 160.224 248.639 147.744C253.63 135.264 256.126 120.192 256.126 102.528C256.126 84.864 253.63 69.792 248.639 57.312C243.646 44.832 236.639 35.328 227.615 28.8C218.783 22.272 208.51 19.008 196.799 19.008C185.087 19.008 174.719 22.272 165.695 28.8C156.863 35.328 149.951 44.832 144.958 57.312C139.966 69.792 137.471 84.864 137.471 102.528C137.471 120.192 139.966 135.264 144.958 147.744C149.951 160.224 156.863 169.728 165.695 176.256C174.719 182.784 185.087 186.048 196.799 186.048Z" fill="white"/>
<path d="M447.156 1.72799V16.416L362.772 203.328H340.308L423.252 20.16H319.572V57.888H299.124V1.72799H447.156Z" fill="white"/>
</svg>
