<svg width="886" height="210" viewBox="0 0 886 210" fill="none" xmlns="http://www.w3.org/2000/svg">
<path d="M624.885 205.328C614.709 205.328 605.226 200.169 599.698 191.626L573.716 151.472L548.56 191.338C543.065 200.046 533.487 205.328 523.189 205.328H462.26L535.124 103.664L464.852 3.72799H525.242C535.204 3.72799 544.515 8.67239 550.095 16.9244L575.444 54.416L599.961 17.2186C605.511 8.79676 614.923 3.72799 625.009 3.72799H682.004L612.02 101.072L686.324 205.328H624.885Z" stroke="black" stroke-width="4"/>
<path d="M791.786 3.72799C810.41 3.72799 826.634 6.8 840.458 12.944C854.282 19.088 864.938 27.92 872.426 39.44C879.914 50.96 883.658 64.4 883.658 79.76C883.658 95.12 879.914 108.56 872.426 120.08C864.938 131.6 854.282 140.432 840.458 146.576C826.634 152.72 810.41 155.792 791.786 155.792H772.698C767.175 155.792 762.698 160.269 762.698 165.792V205.328H694.73V3.72799H791.786ZM787.466 103.376C796.682 103.376 803.594 101.36 808.202 97.328C812.81 93.104 815.114 87.248 815.114 79.76C815.114 72.272 812.81 66.512 808.202 62.48C803.594 58.256 796.682 56.144 787.466 56.144H762.698V103.376H787.466Z" stroke="black" stroke-width="4"/>
<path d="M70.256 3.72799V205.328H49.52V22.16H2V3.72799H70.256Z" stroke="black" stroke-width="4"/>
<path d="M198.799 207.056C183.247 207.056 169.326 202.928 157.038 194.672C144.942 186.416 135.439 174.608 128.527 159.248C121.807 143.696 118.447 125.456 118.447 104.528C118.447 83.6 121.807 65.456 128.527 50.096C135.439 34.544 144.942 22.64 157.038 14.384C169.326 6.128 183.247 2 198.799 2C214.351 2 228.175 6.128 240.271 14.384C252.559 22.64 262.159 34.544 269.071 50.096C275.983 65.456 279.439 83.6 279.439 104.528C279.439 125.456 275.983 143.696 269.071 159.248C262.159 174.608 252.559 186.416 240.271 194.672C228.175 202.928 214.351 207.056 198.799 207.056ZM198.799 188.048C210.511 188.048 220.783 184.784 229.615 178.256C238.639 171.728 245.646 162.224 250.639 149.744C255.63 137.264 258.126 122.192 258.126 104.528C258.126 86.864 255.63 71.792 250.639 59.312C245.646 46.832 238.639 37.328 229.615 30.8C220.783 24.272 210.511 21.008 198.799 21.008C187.087 21.008 176.719 24.272 167.695 30.8C158.863 37.328 151.95 46.832 146.958 59.312C141.966 71.792 139.471 86.864 139.471 104.528C139.471 122.192 141.966 137.264 146.958 149.744C151.95 162.224 158.863 171.728 167.695 178.256C176.719 184.784 187.087 188.048 198.799 188.048Z" stroke="black" stroke-width="4"/>
<path d="M449.156 3.72799V18.416L364.772 205.328H342.308L425.252 22.16H321.572V59.888H301.124V3.72799H449.156Z" stroke="black" stroke-width="4"/>
</svg>
